<svg width="60" height="60" viewBox="0 0 60 60" fill="none" xmlns="http://www.w3.org/2000/svg">
<path d="M30 0V10.7166C30 11.285 29.6488 11.8302 29.0237 12.2321C28.3986 12.6341 27.5507 12.8599 26.6667 12.8599C25.7826 12.8599 24.9348 12.6341 24.3096 12.2321C23.6845 11.8302 23.3333 11.285 23.3333 10.7166V0H16.6667V14.9775C16.6667 15.5459 16.3155 16.0911 15.6904 16.4931C15.0652 16.895 14.2174 17.1208 13.3333 17.1208C12.4493 17.1208 11.6014 16.895 10.9763 16.4931C10.3512 16.0911 10 15.5459 10 14.9775V0H1.43051e-06V25.7112H60V0H30ZM60 29.9979V32.1412C60 34.4149 58.5952 36.5956 56.0948 38.2034C53.5943 39.8112 50.2029 40.7144 46.6667 40.7144H40V53.5701C40 55.2754 38.9464 56.9109 37.0711 58.1167C35.1957 59.3226 32.6522 60 30 60C27.3478 60 24.8043 59.3226 22.9289 58.1167C21.0536 56.9109 20 55.2754 20 53.5701V40.7102H13.3333C9.79711 40.7102 6.40573 39.8069 3.90525 38.1991C1.40476 36.5913 1.43051e-06 34.4107 1.43051e-06 32.1369V29.9979H60Z" fill="white"/>
</svg>
