<svg width="60" height="60" viewBox="0 0 60 60" fill="none" xmlns="http://www.w3.org/2000/svg">
<g clip-path="url(#clip0_445_27)">
<path d="M16.875 1.875C16.875 0.84375 16.0313 0 15 0C13.9687 0 13.125 0.84375 13.125 1.875V3.75H11.25C10.2187 3.75 9.375 4.59375 9.375 5.625C9.375 6.65625 10.2187 7.5 11.25 7.5H13.125V11.25H7.05469C5.75391 11.25 4.6875 12.3164 4.6875 13.6172C4.6875 13.9102 4.74609 14.1914 4.83984 14.4727L8.64844 24.375H8.4375C6.87891 24.375 5.625 25.6289 5.625 27.1875C5.625 28.7461 6.87891 30 8.4375 30H8.90625L7.03125 45H22.9688L21.0938 30H21.5625C23.1211 30 24.375 28.7461 24.375 27.1875C24.375 25.6289 23.1211 24.375 21.5625 24.375H21.3516L25.1602 14.4727C25.2656 14.2031 25.3125 13.9102 25.3125 13.6172C25.3125 12.3047 24.2461 11.25 22.9453 11.25H16.875V7.5H18.75C19.7813 7.5 20.625 6.65625 20.625 5.625C20.625 4.59375 19.7813 3.75 18.75 3.75H16.875V1.875ZM5.625 48.75L0.5625 55.5C0.199219 55.9922 0 56.5781 0 57.1875C0 58.7461 1.25391 60 2.8125 60H27.1875C28.7461 60 30 58.7461 30 57.1875C30 56.5781 29.8008 55.9922 29.4375 55.5L24.375 48.75H5.625ZM39.375 48.75L34.3125 55.5C33.9492 55.9922 33.75 56.5781 33.75 57.1875C33.75 58.7461 35.0039 60 36.5625 60H57.1875C58.7461 60 60 58.7461 60 57.1875C60 56.5781 59.8008 55.9922 59.4375 55.5L54.375 48.75H39.375ZM35.625 24.375V30.457C35.625 31.3711 35.9531 32.25 36.5625 32.9297L39.75 36.5625L39.4922 45H54.1992L53.8125 36.5625L57.1289 32.9531C57.7617 32.2617 58.125 31.3594 58.125 30.4102V24.375C58.125 23.3437 57.2813 22.5 56.25 22.5H54.375C53.3437 22.5 52.5 23.3437 52.5 24.375V26.25H49.6875V24.375C49.6875 23.3437 48.8438 22.5 47.8125 22.5H45.9375C44.9062 22.5 44.0625 23.3437 44.0625 24.375V26.25H41.25V24.375C41.25 23.3437 40.4063 22.5 39.375 22.5H37.5C36.4687 22.5 35.625 23.3437 35.625 24.375ZM45 35.625C45 34.5937 45.8437 33.75 46.875 33.75C47.9063 33.75 48.75 34.5937 48.75 35.625V39.375H45V35.625Z" fill="white"/>
</g>
<defs>
<clipPath id="clip0_445_27">
<rect width="60" height="60" fill="white"/>
</clipPath>
</defs>
</svg>
