<svg width="61" height="61" viewBox="0 0 61 61" fill="none" xmlns="http://www.w3.org/2000/svg">
<path d="M42.5374 33.3334H18.5519C18.9137 41.2894 20.6803 48.1954 23.1464 53.1034C26.1009 58.9834 29.0614 60.3334 30.5387 60.3334C32.0159 60.3334 34.9824 58.9834 37.9369 53.1034C40.403 48.1954 42.1757 41.2834 42.5374 33.3334ZM18.5519 27.3334C18.9137 19.3774 20.6803 12.4714 23.1464 7.56337C26.1009 1.68337 29.0614 0.333374 30.5387 0.333374C32.0159 0.333374 34.9824 1.68337 37.9369 7.56337C40.403 12.4714 42.1696 19.3834 42.5314 27.3334H18.5519ZM12.5163 27.3334H0.541668C1.08876 21.9379 3.09415 16.7906 6.34484 12.4381C9.59554 8.08565 13.9702 4.69054 19.0041 2.61337C15.3623 8.61337 12.9264 17.4034 12.5163 27.3334ZM12.5163 33.3334H0.541668C1.08876 38.7289 3.09415 43.8762 6.34484 48.2286C9.59554 52.5811 13.9702 55.9762 19.0041 58.0534C15.3623 52.0534 12.9264 43.2634 12.5163 33.3334ZM48.573 33.3334H60.5417C59.9951 38.7282 57.9906 43.8751 54.741 48.2275C51.4915 52.5799 47.1181 55.9753 42.0852 58.0534C45.721 52.0534 48.157 43.2634 48.567 33.3334H48.573ZM60.5417 27.3334H48.567C48.157 17.4034 45.721 8.61337 42.0852 2.61337C47.1181 4.6914 51.4915 8.08688 54.741 12.4393C57.9906 16.7917 59.9951 21.9385 60.5417 27.3334Z" fill="white"/>
</svg>
